<?xml version="1.0" standalone="no"?>
<!DOCTYPE svg PUBLIC "-//W3C//DTD SVG 20010904//EN"
 "http://www.w3.org/TR/2001/REC-SVG-20010904/DTD/svg10.dtd">
<svg version="1.0" xmlns="http://www.w3.org/2000/svg"
 width="500.000000pt" height="500.000000pt" viewBox="0 0 500.000000 500.000000"
 preserveAspectRatio="xMidYMid meet">
<metadata>
Created by potrace 1.16, written by Peter Selinger 2001-2019
</metadata>
<g transform="translate(0.000000,500.000000) scale(0.100000,-0.100000)"
fill="#000000" stroke="none">
<path d="M2422 4089 c-25 -13 -55 -39 -69 -60 -14 -22 -28 -39 -30 -39 -3 0
-16 9 -30 20 -34 26 -97 43 -134 35 -78 -17 -126 -103 -116 -208 4 -34 9 -74
13 -88 5 -24 3 -26 -60 -37 -114 -21 -336 -99 -471 -165 -306 -151 -533 -343
-698 -592 -164 -248 -235 -471 -244 -769 -6 -190 5 -294 44 -421 148 -476 580
-742 1343 -830 323 -37 847 -30 1165 16 714 103 1119 382 1240 854 82 320 40
667 -120 990 -123 246 -339 479 -604 650 -166 107 -478 234 -658 267 l-65 12
9 35 c4 20 8 71 8 113 0 82 -12 110 -67 151 -39 29 -110 25 -166 -10 l-47 -29
-30 41 c-36 47 -98 85 -140 85 -16 0 -49 -10 -73 -21z m107 -95 c27 -20 60
-88 61 -126 0 -31 23 -58 50 -58 12 0 35 22 59 53 22 31 55 62 76 71 35 17 38
17 56 0 31 -28 26 -111 -12 -185 -44 -88 -35 -98 112 -126 543 -104 1016 -439
1234 -873 87 -174 131 -333 145 -530 43 -606 -286 -986 -980 -1134 -470 -101
-1201 -101 -1666 -1 -540 117 -850 361 -956 755 -21 76 -23 107 -23 295 1 185
3 221 24 305 109 446 401 793 856 1015 149 73 323 134 475 164 58 12 113 24
122 27 30 9 31 46 4 104 -47 100 -28 210 33 195 32 -8 66 -38 97 -87 17 -27
31 -38 48 -38 32 0 56 25 56 58 0 37 37 107 63 120 31 15 39 14 66 -4z"/>
<path d="M1654 2066 c-29 -29 -34 -41 -34 -81 0 -40 5 -52 34 -81 38 -38 86
-45 135 -19 28 14 61 68 61 100 0 32 -33 86 -61 100 -49 26 -97 19 -135 -19z"/>
<path d="M3230 2083 c-55 -38 -72 -91 -46 -145 33 -69 119 -89 175 -42 57 48
58 125 1 177 -36 32 -92 36 -130 10z"/>
<path d="M2360 1800 c-15 -29 14 -87 59 -117 48 -32 135 -32 182 0 45 30 78
90 63 114 -19 30 -46 21 -68 -22 -16 -31 -29 -42 -56 -49 -42 -10 -107 13
-116 41 -16 53 -45 68 -64 33z"/>
</g>
</svg>
